<svg xmlns="http://www.w3.org/2000/svg" viewBox="0 0 559 559"><defs><style>.cls-1{fill:#22a07a;}.cls-2{fill:#fff;}</style></defs><g id="图层_2" data-name="图层 2"><g id="图层_1-2" data-name="图层 1"><rect class="cls-1" width="559" height="559" rx="279.5"/><path class="cls-2" d="M169.24,311.67h-9.38a10.46,10.46,0,0,1-10.46-10.46V165.14a10.46,10.46,0,0,1,10.46-10.47H295.93a10.47,10.47,0,0,1,10.47,10.47v72.43a10.47,10.47,0,1,0,20.93,0V165.14a31.4,31.4,0,0,0-31.4-31.4H159.86a31.4,31.4,0,0,0-31.4,31.4V301.21a31.4,31.4,0,0,0,31.4,31.4h9.38a10.47,10.47,0,0,0,0-20.94Z"/><path class="cls-2" d="M254.07,277V259.34a10.46,10.46,0,0,1,10.46-10.47H400.6a10.47,10.47,0,0,1,10.47,10.47V395.41a10.46,10.46,0,0,1-10.47,10.46H264.53a10.46,10.46,0,0,1-10.46-10.46V323a10.47,10.47,0,0,0-20.94,0v72.43a31.4,31.4,0,0,0,31.4,31.4H400.6a31.4,31.4,0,0,0,31.4-31.4V259.34a31.4,31.4,0,0,0-31.4-31.4H264.53a31.4,31.4,0,0,0-31.4,31.4V277a10.47,10.47,0,0,0,20.94,0Z"/><path class="cls-2" d="M306.4,283.74v17.47a10.46,10.46,0,0,1-10.47,10.46H159.86a10.47,10.47,0,0,0,0,20.94H295.93a31.4,31.4,0,0,0,31.4-31.4V283.74a10.47,10.47,0,1,0-20.93,0Z"/></g></g></svg>